<mxfile host="app.diagrams.net" agent="Mozilla/5.0 (Windows NT 10.0; Win64; x64) AppleWebKit/537.36 (KHTML, like Gecko) Chrome/134.0.0.0 Safari/537.36 OPR/119.0.0.0" version="27.2.0">
  <diagram name="Page-1" id="qxz_ZeWsHKdxjyat_ZV6">
    <mxGraphModel dx="849" dy="1121" grid="1" gridSize="10" guides="1" tooltips="1" connect="1" arrows="1" fold="1" page="1" pageScale="1" pageWidth="850" pageHeight="1100" math="0" shadow="0">
      <root>
        <mxCell id="0" />
        <mxCell id="1" parent="0" />
        <mxCell id="6HDPcAgGXzTQn2C4bqri-1" value="Active Directory&lt;div&gt;IP: 192.168.10.7&lt;/div&gt;&lt;div&gt;Splunk: Universal Forwarder&lt;/div&gt;&lt;div&gt;Sysmon&lt;/div&gt;" style="sketch=0;outlineConnect=0;fontColor=#232F3E;gradientColor=none;fillColor=#232F3D;strokeColor=none;dashed=0;verticalLabelPosition=bottom;verticalAlign=top;align=center;html=1;fontSize=12;fontStyle=0;aspect=fixed;pointerEvents=1;shape=mxgraph.aws4.traditional_server;" vertex="1" parent="1">
          <mxGeometry x="110" y="280" width="45" height="78" as="geometry" />
        </mxCell>
        <mxCell id="6HDPcAgGXzTQn2C4bqri-2" value="Splunk Server&lt;div&gt;IP: 192.168.10.10&lt;/div&gt;" style="sketch=0;outlineConnect=0;fontColor=#232F3E;gradientColor=none;fillColor=#232F3D;strokeColor=none;dashed=0;verticalLabelPosition=bottom;verticalAlign=top;align=center;html=1;fontSize=12;fontStyle=0;aspect=fixed;pointerEvents=1;shape=mxgraph.aws4.traditional_server;" vertex="1" parent="1">
          <mxGeometry x="110" y="120" width="45" height="78" as="geometry" />
        </mxCell>
        <mxCell id="6HDPcAgGXzTQn2C4bqri-9" style="edgeStyle=orthogonalEdgeStyle;rounded=0;orthogonalLoop=1;jettySize=auto;html=1;" edge="1" parent="1" source="6HDPcAgGXzTQn2C4bqri-3" target="6HDPcAgGXzTQn2C4bqri-5">
          <mxGeometry relative="1" as="geometry" />
        </mxCell>
        <mxCell id="6HDPcAgGXzTQn2C4bqri-3" value="Windows 10&lt;div&gt;IP: DHCP&lt;/div&gt;&lt;div&gt;Splunk Universal Forwarder&lt;/div&gt;&lt;div&gt;Sysmon&lt;/div&gt;&lt;div&gt;Atomic Red Team&lt;/div&gt;&lt;div&gt;&lt;br&gt;&lt;/div&gt;" style="verticalLabelPosition=bottom;html=1;verticalAlign=top;align=center;strokeColor=none;fillColor=#00BEF2;shape=mxgraph.azure.computer;pointerEvents=1;" vertex="1" parent="1">
          <mxGeometry x="330" y="490" width="50" height="45" as="geometry" />
        </mxCell>
        <mxCell id="6HDPcAgGXzTQn2C4bqri-4" value="Kali Linux&lt;div&gt;IP: 192.168.20.250&amp;nbsp;&lt;/div&gt;" style="verticalLabelPosition=bottom;html=1;verticalAlign=top;align=center;shape=mxgraph.azure.computer;pointerEvents=1;" vertex="1" parent="1">
          <mxGeometry x="540" y="382.5" width="50" height="45" as="geometry" />
        </mxCell>
        <mxCell id="6HDPcAgGXzTQn2C4bqri-5" value="" style="sketch=0;points=[[0.015,0.015,0],[0.985,0.015,0],[0.985,0.985,0],[0.015,0.985,0],[0.25,0,0],[0.5,0,0],[0.75,0,0],[1,0.25,0],[1,0.5,0],[1,0.75,0],[0.75,1,0],[0.5,1,0],[0.25,1,0],[0,0.75,0],[0,0.5,0],[0,0.25,0]];verticalLabelPosition=bottom;html=1;verticalAlign=top;aspect=fixed;align=center;pointerEvents=1;shape=mxgraph.cisco19.rect;prIcon=l2_switch;fillColor=#FAFAFA;strokeColor=#005073;" vertex="1" parent="1">
          <mxGeometry x="330" y="380" width="50" height="50" as="geometry" />
        </mxCell>
        <mxCell id="6HDPcAgGXzTQn2C4bqri-6" value="" style="sketch=0;points=[[0.5,0,0],[1,0.5,0],[0.5,1,0],[0,0.5,0],[0.145,0.145,0],[0.8555,0.145,0],[0.855,0.8555,0],[0.145,0.855,0]];verticalLabelPosition=bottom;html=1;verticalAlign=top;aspect=fixed;align=center;pointerEvents=1;shape=mxgraph.cisco19.rect;prIcon=router;fillColor=#FAFAFA;strokeColor=#005073;" vertex="1" parent="1">
          <mxGeometry x="340" y="254" width="50" height="50" as="geometry" />
        </mxCell>
        <mxCell id="6HDPcAgGXzTQn2C4bqri-7" value="Internet" style="ellipse;shape=cloud;whiteSpace=wrap;html=1;" vertex="1" parent="1">
          <mxGeometry x="305" y="60" width="120" height="80" as="geometry" />
        </mxCell>
        <mxCell id="6HDPcAgGXzTQn2C4bqri-10" style="edgeStyle=orthogonalEdgeStyle;rounded=0;orthogonalLoop=1;jettySize=auto;html=1;entryX=1;entryY=0.5;entryDx=0;entryDy=0;entryPerimeter=0;" edge="1" parent="1" source="6HDPcAgGXzTQn2C4bqri-4" target="6HDPcAgGXzTQn2C4bqri-5">
          <mxGeometry relative="1" as="geometry" />
        </mxCell>
        <mxCell id="6HDPcAgGXzTQn2C4bqri-11" style="edgeStyle=orthogonalEdgeStyle;rounded=0;orthogonalLoop=1;jettySize=auto;html=1;entryX=0;entryY=0.5;entryDx=0;entryDy=0;entryPerimeter=0;" edge="1" parent="1" source="6HDPcAgGXzTQn2C4bqri-2" target="6HDPcAgGXzTQn2C4bqri-5">
          <mxGeometry relative="1" as="geometry" />
        </mxCell>
        <mxCell id="6HDPcAgGXzTQn2C4bqri-12" style="edgeStyle=orthogonalEdgeStyle;rounded=0;orthogonalLoop=1;jettySize=auto;html=1;entryX=0;entryY=0.5;entryDx=0;entryDy=0;entryPerimeter=0;" edge="1" parent="1" source="6HDPcAgGXzTQn2C4bqri-1" target="6HDPcAgGXzTQn2C4bqri-5">
          <mxGeometry relative="1" as="geometry" />
        </mxCell>
        <mxCell id="6HDPcAgGXzTQn2C4bqri-13" style="edgeStyle=orthogonalEdgeStyle;rounded=0;orthogonalLoop=1;jettySize=auto;html=1;entryX=0.5;entryY=1;entryDx=0;entryDy=0;entryPerimeter=0;" edge="1" parent="1" source="6HDPcAgGXzTQn2C4bqri-5" target="6HDPcAgGXzTQn2C4bqri-6">
          <mxGeometry relative="1" as="geometry" />
        </mxCell>
        <mxCell id="6HDPcAgGXzTQn2C4bqri-14" style="rounded=0;orthogonalLoop=1;jettySize=auto;html=1;entryX=0.55;entryY=0.95;entryDx=0;entryDy=0;entryPerimeter=0;" edge="1" parent="1" source="6HDPcAgGXzTQn2C4bqri-6" target="6HDPcAgGXzTQn2C4bqri-7">
          <mxGeometry relative="1" as="geometry" />
        </mxCell>
        <mxCell id="6HDPcAgGXzTQn2C4bqri-15" value="Domain: MyDFIR&lt;div&gt;Network: 192.168.10.0/24&lt;/div&gt;&lt;div&gt;Splunk Server: 192.168.10.10&lt;/div&gt;&lt;div&gt;Active Directory: 192.168.10.7&lt;/div&gt;&lt;div&gt;Attacker: 192.168.10.250&lt;/div&gt;" style="text;html=1;align=center;verticalAlign=middle;resizable=0;points=[];autosize=1;strokeColor=none;fillColor=none;" vertex="1" parent="1">
          <mxGeometry x="440" y="170" width="180" height="90" as="geometry" />
        </mxCell>
        <mxCell id="6HDPcAgGXzTQn2C4bqri-16" style="rounded=0;orthogonalLoop=1;jettySize=auto;html=1;dashed=1;" edge="1" parent="1" source="6HDPcAgGXzTQn2C4bqri-3" target="6HDPcAgGXzTQn2C4bqri-2">
          <mxGeometry relative="1" as="geometry">
            <Array as="points">
              <mxPoint x="230" y="330" />
            </Array>
          </mxGeometry>
        </mxCell>
      </root>
    </mxGraphModel>
  </diagram>
</mxfile>
